<svg width="140" height="36" viewBox="0 0 140 36" fill="none" xmlns="http://www.w3.org/2000/svg">
<g clip-path="url(#clip0_712_776)">
<path d="M4.744 31V4.144H4.78L18.424 23.512L16.948 23.224L30.556 4.144H30.628V31H27.172V12.064L27.388 13.828L17.56 27.724H17.488L7.516 13.828L8.128 12.208V31H4.744ZM35.5153 31L46.8913 3.892H47.1073L58.4473 31H54.4513L45.9553 9.364L48.4393 7.744L38.9353 31H35.5153ZM42.1753 21.136H51.8593L53.0113 24.16H41.1673L42.1753 21.136ZM70.2615 4.972C71.5815 4.972 72.7935 5.152 73.8975 5.512C75.0255 5.848 75.9975 6.364 76.8135 7.06C77.6535 7.732 78.3015 8.572 78.7575 9.58C79.2375 10.564 79.4775 11.716 79.4775 13.036C79.4775 14.068 79.3215 15.076 79.0095 16.06C78.7215 17.044 78.2295 17.944 77.5335 18.76C76.8375 19.552 75.9255 20.2 74.7975 20.704C73.6935 21.184 72.3255 21.424 70.6935 21.424H66.8415V31H63.3495V4.972H70.2615ZM70.6215 18.076C71.6535 18.076 72.5055 17.92 73.1775 17.608C73.8735 17.296 74.4135 16.9 74.7975 16.42C75.1815 15.916 75.4575 15.376 75.6255 14.8C75.7935 14.224 75.8775 13.684 75.8775 13.18C75.8775 12.652 75.7815 12.112 75.5895 11.56C75.4215 10.984 75.1335 10.456 74.7255 9.976C74.3415 9.496 73.8255 9.1 73.1775 8.788C72.5535 8.476 71.7855 8.32 70.8735 8.32H66.8415V18.076H70.6215ZM74.9055 20.056L81.7095 31H77.6775L70.7655 20.164L74.9055 20.056ZM84.8204 4.972H102.1V8.32H95.1164V31H91.6244V8.32H84.8204V4.972ZM107.646 4.972H111.138V31H107.646V4.972ZM125.527 4.972C126.847 4.972 128.059 5.152 129.163 5.512C130.291 5.848 131.263 6.364 132.079 7.06C132.919 7.732 133.567 8.572 134.023 9.58C134.503 10.564 134.743 11.716 134.743 13.036C134.743 14.068 134.587 15.076 134.275 16.06C133.987 17.044 133.495 17.944 132.799 18.76C132.103 19.552 131.191 20.2 130.063 20.704C128.959 21.184 127.591 21.424 125.959 21.424H122.107V31H118.615V4.972H125.527ZM125.887 18.076C126.919 18.076 127.771 17.92 128.443 17.608C129.139 17.296 129.679 16.9 130.063 16.42C130.447 15.916 130.723 15.376 130.891 14.8C131.059 14.224 131.143 13.684 131.143 13.18C131.143 12.652 131.047 12.112 130.855 11.56C130.687 10.984 130.399 10.456 129.991 9.976C129.607 9.496 129.091 9.1 128.443 8.788C127.819 8.476 127.051 8.32 126.139 8.32H122.107V18.076H125.887ZM130.171 20.056L136.975 31H132.943L126.031 20.164L130.171 20.056Z" fill="white"/>
</g>
<defs>
<clipPath id="clip0_712_776">
<rect width="140" height="36" fill="white"/>
</clipPath>
</defs>
</svg>
